<mxfile host="app.diagrams.net" modified="2024-07-18T04:00:32.971Z" agent="Mozilla/5.0 (Windows NT 10.0; Win64; x64) AppleWebKit/537.36 (KHTML, like Gecko) Chrome/125.0.0.0 Safari/537.36" etag="OvldyJ0wcEVo2WAfliaS" version="24.7.1" type="device">
  <diagram name="Trang-1" id="43Iw-BSyHzTc-QbQiODq">
    <mxGraphModel dx="1006" dy="531" grid="1" gridSize="10" guides="1" tooltips="1" connect="1" arrows="1" fold="1" page="1" pageScale="1" pageWidth="827" pageHeight="1169" math="0" shadow="0">
      <root>
        <mxCell id="0" />
        <mxCell id="1" parent="0" />
        <mxCell id="sNajoEpPM1lTUHpaW8hU-9" style="edgeStyle=orthogonalEdgeStyle;rounded=0;orthogonalLoop=1;jettySize=auto;html=1;exitX=0.5;exitY=0;exitDx=0;exitDy=0;entryX=0.5;entryY=1;entryDx=0;entryDy=0;fontStyle=1;fontSize=14;" edge="1" parent="1" source="sNajoEpPM1lTUHpaW8hU-1" target="sNajoEpPM1lTUHpaW8hU-2">
          <mxGeometry relative="1" as="geometry" />
        </mxCell>
        <mxCell id="sNajoEpPM1lTUHpaW8hU-12" style="edgeStyle=orthogonalEdgeStyle;rounded=0;orthogonalLoop=1;jettySize=auto;html=1;exitX=1;exitY=0.5;exitDx=0;exitDy=0;entryX=0;entryY=0.5;entryDx=0;entryDy=0;fontStyle=1;fontSize=14;" edge="1" parent="1" source="sNajoEpPM1lTUHpaW8hU-1" target="sNajoEpPM1lTUHpaW8hU-11">
          <mxGeometry relative="1" as="geometry" />
        </mxCell>
        <mxCell id="sNajoEpPM1lTUHpaW8hU-1" value="Khối vi điều khiển" style="rounded=1;whiteSpace=wrap;html=1;fontStyle=1;fontSize=14;" vertex="1" parent="1">
          <mxGeometry x="360" y="240" width="160" height="80" as="geometry" />
        </mxCell>
        <mxCell id="sNajoEpPM1lTUHpaW8hU-2" value="Khối hiển thị" style="rounded=1;whiteSpace=wrap;html=1;fontStyle=1;fontSize=14;" vertex="1" parent="1">
          <mxGeometry x="360" y="80" width="160" height="80" as="geometry" />
        </mxCell>
        <mxCell id="sNajoEpPM1lTUHpaW8hU-6" style="edgeStyle=orthogonalEdgeStyle;rounded=0;orthogonalLoop=1;jettySize=auto;html=1;exitX=1;exitY=0.5;exitDx=0;exitDy=0;entryX=0;entryY=0.5;entryDx=0;entryDy=0;fontStyle=1;fontSize=14;" edge="1" parent="1" source="sNajoEpPM1lTUHpaW8hU-3" target="sNajoEpPM1lTUHpaW8hU-1">
          <mxGeometry relative="1" as="geometry" />
        </mxCell>
        <mxCell id="sNajoEpPM1lTUHpaW8hU-7" style="edgeStyle=orthogonalEdgeStyle;rounded=0;orthogonalLoop=1;jettySize=auto;html=1;exitX=0.5;exitY=0;exitDx=0;exitDy=0;entryX=0;entryY=0.5;entryDx=0;entryDy=0;fontStyle=1;fontSize=14;" edge="1" parent="1" source="sNajoEpPM1lTUHpaW8hU-3" target="sNajoEpPM1lTUHpaW8hU-2">
          <mxGeometry relative="1" as="geometry" />
        </mxCell>
        <mxCell id="sNajoEpPM1lTUHpaW8hU-8" style="edgeStyle=orthogonalEdgeStyle;rounded=0;orthogonalLoop=1;jettySize=auto;html=1;exitX=0.5;exitY=1;exitDx=0;exitDy=0;entryX=0;entryY=0.5;entryDx=0;entryDy=0;fontStyle=1;fontSize=14;" edge="1" parent="1" source="sNajoEpPM1lTUHpaW8hU-3" target="sNajoEpPM1lTUHpaW8hU-4">
          <mxGeometry relative="1" as="geometry" />
        </mxCell>
        <mxCell id="sNajoEpPM1lTUHpaW8hU-3" value="Khối nguồn" style="rounded=1;whiteSpace=wrap;html=1;fontStyle=1;fontSize=14;" vertex="1" parent="1">
          <mxGeometry x="120" y="240" width="160" height="80" as="geometry" />
        </mxCell>
        <mxCell id="sNajoEpPM1lTUHpaW8hU-10" style="edgeStyle=orthogonalEdgeStyle;rounded=0;orthogonalLoop=1;jettySize=auto;html=1;exitX=0.5;exitY=0;exitDx=0;exitDy=0;fontStyle=1;fontSize=14;" edge="1" parent="1" source="sNajoEpPM1lTUHpaW8hU-4" target="sNajoEpPM1lTUHpaW8hU-1">
          <mxGeometry relative="1" as="geometry" />
        </mxCell>
        <mxCell id="sNajoEpPM1lTUHpaW8hU-4" value="Khối cảm biến" style="rounded=1;whiteSpace=wrap;html=1;fontStyle=1;fontSize=14;" vertex="1" parent="1">
          <mxGeometry x="360" y="400" width="160" height="80" as="geometry" />
        </mxCell>
        <mxCell id="sNajoEpPM1lTUHpaW8hU-11" value="Khối ngoại vi&lt;div style=&quot;font-size: 14px;&quot;&gt;(Buzzer, button)&lt;/div&gt;" style="rounded=1;whiteSpace=wrap;html=1;fontStyle=1;fontSize=14;" vertex="1" parent="1">
          <mxGeometry x="600" y="240" width="160" height="80" as="geometry" />
        </mxCell>
      </root>
    </mxGraphModel>
  </diagram>
</mxfile>
